# xmcd CD database file generated by Grip 2.94
# 
# Track frame offsets:
#       182
#       17425
#       31277
#       54902
#       70322
#       84885
#       102345
#       122705
#       134342
#       154315
#       163805
#       181627
# 
# Disc length: 2616 seconds
# 
# Revision: 3
# Processed by: cddbd v1.4b41PL3 Copyright (c) Steve Scherf et al.
# Submitted via: Grip 2.94
# 
DISCID=900a360c
DTITLE=Prescription For Rhythm - Doc Scanlon's Rhythm Boys
DYEAR=1900
DGENRE=
TTITLE0=Boogie Woogie Blue Plate
TTITLE1=Rocket 88
TTITLE2=Since I Fell For You
TTITLE3=Perdido
TTITLE4=Almost Like Being In Love
TTITLE5=Jukebox Drive
TTITLE6=Rocket In My Pocket
TTITLE7=Exactly Like You
TTITLE8=You Don't Know Me
TTITLE9=It's Only A Paper Moon
TTITLE10=Cadillac Slim
TTITLE11=Seven Nights To Rock
EXTD=
EXTT0=
EXTT1=
EXTT2=
EXTT3=
EXTT4=
EXTT5=
EXTT6=
EXTT7=
EXTT8=
EXTT9=
EXTT10=
EXTT11=
PLAYORDER=
